# xmcd
# 
# Track frame offsets:
#     150
#     12380
#     30497
#     47407
#     68292
#     86767
#     106422
#     123060
#     136122
#     153017
# 
# Disc length: 2166
# 
# Revision: 5
# Processed by: cddbd v1.5.2PL0 Copyright (c) Steve Scherf et al.
# Submitted via: BonkEnc v1.0.5
# 
DISCID=6708740a
DTITLE=Various Artist - Wrangler Cowboy Christmas Volume VII
DYEAR=1999
DGENRE=Country
TTITLE0=Tracy Byrd - Jingle Bells
TTITLE1=Vince Gill - Have Yourself A Merry Little Christmas
TTITLE2=Lorrie Morgan - My Favorite Thing
TTITLE3=Gary Allan - It Must Have Been 'Ol Santa Claus
TTITLE4=Kathy Mattea - There's A New Kid In Town
TTITLE5=Steve Wariner - Do You Hear What I Hear
TTITLE6=Lee Ann Womack - His Will Is Done
TTITLE7=Alan Jackson - Honky Tonk Christmas
TTITLE8=Reba McEntire - This Christmas
TTITLE9=George Strait - Santa's On His Way
EXTD=
EXTT0=
EXTT1=
EXTT2=
EXTT3=
EXTT4=
EXTT5=
EXTT6=
EXTT7=
EXTT8=
EXTT9=
PLAYORDER=
